<svg xmlns="http://www.w3.org/2000/svg" xmlns:xlink="http://www.w3.org/1999/xlink" viewBox="0,0,256,256" width="48px" height="48px" fill-rule="nonzero"><g fill="#787d83" fill-rule="nonzero" stroke="none" stroke-width="1" stroke-linecap="butt" stroke-linejoin="miter" stroke-miterlimit="10" stroke-dasharray="" stroke-dashoffset="0" font-family="none" font-weight="none" font-size="none" text-anchor="none" style="mix-blend-mode: normal"><g transform="scale(10.66667,10.66667)"><path d="M8.004,4.52l-7.835,13.957c-0.384,0.681 0.108,1.523 0.889,1.523h15.671c0.782,0 1.274,-0.842 0.89,-1.523l-7.835,-13.957c-0.391,-0.693 -1.389,-0.693 -1.78,0z" opacity="0.35"></path><path d="M23.878,18.477l-7.836,-13.957c-0.183,-0.324 -0.499,-0.49 -0.823,-0.511v-0.008h-6.325c0.347,0 0.695,0.173 0.89,0.52l7.835,13.957c0.384,0.68 -0.108,1.522 -0.89,1.522h6.259c0.782,0 1.273,-0.842 0.89,-1.523z"></path><path d="M8.792,4.013c0.034,-0.004 0.067,-0.013 0.102,-0.013h-0.103z"></path><path d="M8.894,11.438c-1.4,3.114 -3.565,6.056 -6.414,8.562h12.828c-2.849,-2.506 -5.014,-5.448 -6.414,-8.562z"></path></g></g></svg>