<svg xmlns="http://www.w3.org/2000/svg"  viewBox="0 0 24 24" width="48px" height="48px"><path d="M4,19V5c0-1.657,1.343-3,3-3h7l6,6v11c0,1.657-1.343,3-3,3H7	C5.343,22,4,20.657,4,19z" opacity=".35"/><path d="M14,11H8c-0.553,0-1-0.448-1-1s0.447-1,1-1h6c0.553,0,1,0.448,1,1S14.553,11,14,11z"/><path d="M14,6V2l6,6h-4C14.895,8,14,7.105,14,6z"/><path d="M13.364,20c-0.728,0-1.275-0.404-1.671-1.004c-0.304,0.169-0.531,0.274-0.614,0.311c-0.321,0.144-0.696,0-0.84-0.319	c-0.144-0.32-0.001-0.697,0.319-0.841c0.158-0.072,0.368-0.178,0.602-0.313c-0.237-0.755-0.341-1.588-0.341-2.288	c0-1.427,0.838-2.545,1.909-2.545c0.925,0,1.909,0.809,1.909,2.311c0,1.277-0.956,2.304-1.882,3c0.174,0.258,0.379,0.417,0.61,0.417	c0.456,0,0.713-0.232,1.082-0.614c0.299-0.309,0.637-0.659,1.158-0.659c0.557,0,0.902,0.253,1.154,0.438	c0.204,0.15,0.282,0.198,0.424,0.198c0.352,0,0.636,0.285,0.636,0.636s-0.284,0.636-0.636,0.636c-0.57,0-0.92-0.257-1.176-0.445	c-0.194-0.142-0.269-0.192-0.402-0.192c0.002,0.017-0.14,0.164-0.244,0.27C14.975,19.397,14.392,20,13.364,20z M12.727,14.273	c-0.216,0-0.636,0.449-0.636,1.273c0,0.476,0.062,1.019,0.178,1.521c0.597-0.502,1.095-1.117,1.095-1.755	C13.364,14.595,12.991,14.273,12.727,14.273z"/><path d="M9,15H8c-0.55,0-1-0.45-1-1v0c0-0.55,0.45-1,1-1h1c0.55,0,1,0.45,1,1v0C10,14.55,9.55,15,9,15z"/></svg>