<svg xmlns="http://www.w3.org/2000/svg"  viewBox="0 0 24 24" width="48px" height="48px"><path d="M21.47,5.645C21.093,5.235,20.557,5,19.999,5H4.275l-0.11-0.831C4,2.933,2.935,2,1.687,2H1	C0.447,2,0,2.447,0,3s0.447,1,1,1h0.687c0.25,0,0.463,0.187,0.496,0.434L3.72,15.962C3.95,17.694,5.441,19,7.188,19h10.597	c1.806,0,3.338-1.409,3.488-3.209l0.72-8.626C22.038,6.609,21.848,6.055,21.47,5.645z" opacity=".35"/><circle cx="8" cy="19" r="2"/><circle cx="17" cy="19" r="2"/><path d="M15,8c-0.186,0-4.814,0-5,0C9.448,8,9,8.448,9,9s0.448,1,1,1c0.186,0,4.814,0,5,0c0.552,0,1-0.448,1-1S15.552,8,15,8z"/></svg>