<svg xmlns="http://www.w3.org/2000/svg" xmlns:xlink="http://www.w3.org/1999/xlink" viewBox="0,0,256,256" width="128px" height="128px" fill-rule="nonzero"><g fill="none" fill-rule="nonzero" stroke="none" stroke-width="1" stroke-linecap="butt" stroke-linejoin="miter" stroke-miterlimit="10" stroke-dasharray="" stroke-dashoffset="0" font-family="none" font-weight="none" font-size="none" text-anchor="none" style="mix-blend-mode: normal"><g transform="scale(2,2)"><path d="M94.5,114h-61c-5.5,0 -10,-4.5 -10,-10v-80c0,-5.5 4.5,-10 10,-10h61c5.5,0 10,4.5 10,10v80c0,5.5 -4.5,10 -10,10z" fill="#ffffff"></path><path d="M60,27.5h8v35h-8z" fill="#b1b9c4"></path><path transform="translate(72.1124,-32.81619) rotate(60.836)" d="M60,27.1h8v35.7h-8z" fill="#b1b9c4"></path><path transform="translate(30.04422,-25.48427) rotate(29.164)" d="M46.1,41h35.7v8h-35.7z" fill="#b1b9c4"></path><path d="M88.5,79h-51c-1.7,0 -3,-1.3 -3,-3c0,-1.7 1.3,-3 3,-3h51c1.7,0 3,1.3 3,3c0,1.7 -1.3,3 -3,3z" fill="#b1b9c4"></path><g fill="#b1b9c4"><path d="M64,94h-26.5c-1.7,0 -3,-1.3 -3,-3c0,-1.7 1.3,-3 3,-3h26.5c1.7,0 3,1.3 3,3c0,1.7 -1.3,3 -3,3z"></path></g><g fill="#454b54"><path d="M94.5,117h-61c-7.2,0 -13,-5.8 -13,-13v-80c0,-7.2 5.8,-13 13,-13h61c7.2,0 13,5.8 13,13v80c0,7.2 -5.8,13 -13,13zM33.5,17c-3.9,0 -7,3.1 -7,7v80c0,3.9 3.1,7 7,7h61c3.9,0 7,-3.1 7,-7v-80c0,-3.9 -3.1,-7 -7,-7z"></path></g></g></g></svg>