<svg xmlns="http://www.w3.org/2000/svg" xmlns:xlink="http://www.w3.org/1999/xlink" viewBox="0,0,256,256" width="48px" height="48px" fill-rule="nonzero"><g fill="#787d83" fill-rule="nonzero" stroke="none" stroke-width="1" stroke-linecap="butt" stroke-linejoin="miter" stroke-miterlimit="10" stroke-dasharray="" stroke-dashoffset="0" font-family="none" font-weight="none" font-size="none" text-anchor="none" style="mix-blend-mode: normal"><g transform="scale(10.66667,10.66667)"><path d="M18,3h-6v0l-2.641,-1.316c-0.427,-0.214 -0.895,-0.308 -1.358,-0.287l-0.001,-0.001c-0.453,0.02 -0.902,0.15 -1.303,0.39l-2.238,1.34c-0.906,0.542 -1.459,1.519 -1.459,2.574v13.406c0,1.274 1.389,2.061 2.482,1.406l1.214,-0.727c0.401,-0.241 0.851,-0.37 1.304,-0.39v-0.012v0.012c0.463,-0.02 0.931,0.074 1.36,0.288l2.64,1.316v0.001h6c1.657,0 3,-1.344 3,-3v-9v-1.671v-1.329c0,-1.656 -1.343,-3 -3,-3z" opacity="0.35"></path><path d="M18.72,17.346l0.213,0.427c0.155,0.309 0.029,0.685 -0.28,0.84l-0.641,0.321c-0.086,0.043 -0.182,0.066 -0.279,0.066h-0.107c-0.346,0 -0.626,-0.28 -0.626,-0.626v-0.748c0,-0.346 0.28,-0.626 0.626,-0.626h0.534c0.237,0 0.454,0.134 0.56,0.346z"></path><path d="M10,7.686v0.447c0,0.33 -0.196,0.626 -0.493,0.742l-2.443,0.956c-0.297,0.116 -0.493,0.411 -0.493,0.742v0c0,0.436 0.34,0.791 0.759,0.791h1.497c0.201,0 0.394,0.083 0.537,0.232l0.412,0.43c0.143,0.149 0.224,0.351 0.224,0.56v0.21c0,0.503 -0.236,0.975 -0.631,1.263l-2.46,1.796c-0.503,0.367 -1.195,-0.008 -1.195,-0.649v-2.262c0,-0.156 -0.045,-0.309 -0.128,-0.439l-1.311,-2.051c-0.179,-0.281 -0.275,-0.612 -0.275,-0.95v-2.712c0,-0.437 0.34,-0.792 0.759,-0.792h1.069c0.202,0 0.395,0.083 0.537,0.232l0.412,0.43c0.142,0.148 0.336,0.232 0.537,0.232h1.926c0.42,0 0.76,0.355 0.76,0.792z"></path><path d="M19.182,7c0,0 -2.455,0 -3.273,0c-0.818,0 -0.818,1 -0.818,1h-2.455v-0.466c0,-0.396 -0.417,-0.655 -0.772,-0.477l-0.412,0.206c-0.277,0.139 -0.452,0.422 -0.452,0.732v1.46c0,0.258 0.121,0.5 0.327,0.655l0.982,0.736c0.206,0.155 0.327,0.397 0.327,0.655v0.682c0,0.452 0.367,0.818 0.818,0.818h0.66c0.341,0 0.646,0.212 0.766,0.531l0.514,1.917c0.126,0.331 0.444,0.551 0.798,0.551c0.406,0 0.756,-0.286 0.835,-0.685l0.386,-2.748c0.077,-0.383 0.412,-0.658 0.803,-0.658h0.147c0.452,0 0.818,-0.367 0.818,-0.818v-0.07c0,-0.217 -0.086,-0.425 -0.24,-0.578l-0.339,-0.339c-0.154,-0.154 -0.24,-0.362 -0.24,-0.578v-0.07c0,-0.452 0.367,-0.818 0.818,-0.818c0.451,0 0.82,-0.368 0.82,-0.82c0,-0.451 -0.367,-0.818 -0.818,-0.818z"></path></g></g></svg>