<svg xmlns="http://www.w3.org/2000/svg"  viewBox="0 0 24 24" width="48px" height="48px"><path d="M4,19V5c0-1.657,1.343-3,3-3h10c1.657,0,3,1.343,3,3v14	c0,1.657-1.343,3-3,3H7C5.343,22,4,20.657,4,19z" opacity=".35"/><path d="M14.5,4h-5C8.671,4,8,3.328,8,2.5S8.671,1,9.5,1h5C15.329,1,16,1.672,16,2.5S15.329,4,14.5,4z"/><path d="M12,18L12,18c-0.552,0-1-0.448-1-1V9c0-0.552,0.448-1,1-1l0,0c0.552,0,1,0.448,1,1v8C13,17.552,12.552,18,12,18z"/><path d="M7,13L7,13c0-0.552,0.448-1,1-1h8c0.552,0,1,0.448,1,1l0,0c0,0.552-0.448,1-1,1H8C7.448,14,7,13.552,7,13z"/></svg>