<svg width="24" height="24" viewBox="0 0 24 24" fill="none" xmlns="http://www.w3.org/2000/svg">
<path fill-rule="evenodd" clip-rule="evenodd" d="M13.4203 14.6825C14.7961 12.9106 16 10.6358 16 8.18182C16 7.04667 15.6299 5.98495 14.9857 5.23828C14.377 4.53277 13.4361 4 12 4C10.5639 4 9.62299 4.53277 9.01431 5.23828C8.37013 5.98495 8 7.04667 8 8.18182C8 10.6358 9.20389 12.9106 10.5797 14.6825C11.0743 15.3195 11.5706 15.8648 12 16.299C12.4294 15.8648 12.9257 15.3195 13.4203 14.6825ZM12 19C12 19 18 14.3636 18 8.18182C18 5.09091 16 2 12 2C8 2 6 5.09091 6 8.18182C6 14.3636 12 19 12 19Z" fill="black"/>
<path fill-rule="evenodd" clip-rule="evenodd" d="M12 7C11.4477 7 11 7.44772 11 8C11 8.55228 11.4477 9 12 9C12.5523 9 13 8.55228 13 8C13 7.44772 12.5523 7 12 7ZM9 8C9 6.34315 10.3431 5 12 5C13.6569 5 15 6.34315 15 8C15 9.65685 13.6569 11 12 11C10.3431 11 9 9.65685 9 8Z" fill="black"/>
<path fill-rule="evenodd" clip-rule="evenodd" d="M17.0052 14.6813C17.1812 14.1578 17.7483 13.8762 18.2718 14.0522C19.2721 14.3885 20.1581 14.8244 20.8141 15.3664C21.4645 15.9037 22 16.6451 22 17.5715C22 18.4273 21.541 19.1276 20.962 19.6491C20.3828 20.1707 19.6009 20.5947 18.72 20.9303C16.9511 21.6042 14.575 22 12 22C9.42502 22 7.04888 21.6042 5.28004 20.9303C4.3991 20.5947 3.61723 20.1707 3.03802 19.6491C2.45905 19.1276 2 18.4273 2 17.5715C2 16.6529 2.52674 15.916 3.1691 15.3803C3.81638 14.8406 4.69051 14.4059 5.67728 14.0694C6.20002 13.8912 6.76826 14.1705 6.9465 14.6932C7.12473 15.2159 6.84545 15.7842 6.32272 15.9624C5.46824 16.2538 4.84237 16.5891 4.44996 16.9163C4.05263 17.2477 4 17.4746 4 17.5715C4 17.6624 4.04463 17.8641 4.3765 18.163C4.70814 18.4617 5.2443 18.7765 5.99203 19.0613C7.48056 19.6284 9.60442 20 12 20C14.3956 20 16.5194 19.6284 18.008 19.0613C18.7557 18.7765 19.2919 18.4617 19.6235 18.163C19.9554 17.8641 20 17.6624 20 17.5715C20 17.4738 19.9463 17.2436 19.5403 16.9083C19.14 16.5776 18.5025 16.2398 17.6344 15.9479C17.1109 15.7719 16.8292 15.2048 17.0052 14.6813Z" fill="black"/>
</svg>
